<?xml version="1.0" encoding="utf-8"?>
<!-- Generator: Adobe Illustrator 25.0.1, SVG Export Plug-In . SVG Version: 6.00 Build 0)  -->
<svg version="1.1" id="Layer_1" xmlns="http://www.w3.org/2000/svg" xmlns:xlink="http://www.w3.org/1999/xlink" x="0px" y="0px"
	 viewBox="0 0 250 86" style="enable-background:new 0 0 250 86;" xml:space="preserve">
<style type="text/css">
	.st0{fill-rule:evenodd;clip-rule:evenodd;fill:#1D2C54;}
	.st1{fill-rule:evenodd;clip-rule:evenodd;fill:#05B1C5;}
	.st2{fill:#05B1C5;}
	.st3{fill:#58585A;}
</style>
<g id="Group_4" transform="translate(-527.26 -417.155)">
	<path id="Path_1" class="st0" d="M527.3,439.7c0.7-1.3,1.4-2.7,2-4c1.3-2.6,2.5-5.3,3.8-7.9c0.1-0.3,0.5-0.6,0.8-0.5
		c13.1,0,26.1,0,39.2,0c0.2,0,0.3,0,0.6,0c-8.7,19.1-17.3,38.2-25.9,57.2H535c6.7-14.9,13.5-29.7,20.2-44.5c-0.2,0-0.3,0-0.5-0.1
		c-9.1,0-18.1,0-27.2,0c-0.1,0-0.2,0-0.3,0C527.3,439.8,527.3,439.7,527.3,439.7z"/>
	<path id="Path_2" class="st1" d="M618.9,420.8c-1.2,2.8-2.4,5.6-3.7,8.4c-0.5,1.2-1.1,2.4-1.6,3.7c-0.2,0.5-0.4,0.6-0.9,0.6
		c-8.8,0-17.7,0-26.5,0c-0.5-0.1-1,0.2-1.2,0.7c-6.6,14.4-13.2,28.8-19.8,43.2c-0.1,0.4-0.6,0.7-1,0.7c-3.8,0-7.5,0-11.3,0h-0.8
		c0.3-0.6,0.5-1.1,0.7-1.6c8.5-18.5,17-37,25.5-55.5c0-0.1,0.1-0.2,0.1-0.2L618.9,420.8z"/>
	<g id="Group_2">
		<path id="Path_6" class="st0" d="M667,477.9c-1.9,0-3.7,0-5.5,0c-0.2,0-0.5-0.3-0.6-0.5c-2.7-4.6-5.3-9.2-7.9-13.8
			c-1.1-1.9-2.1-3.7-3.2-5.6c-0.1-0.2-0.2-0.3-0.4-0.7c-0.6,7-1.1,13.8-1.7,20.6h-6.1c0.8-10.5,1.7-21,2.5-31.6c0.3,0,0.5,0,0.7,0
			c1.4,0,2.9,0,4.3,0c0.5-0.1,0.9,0.2,1.1,0.6c3.7,6.4,7.3,12.9,11,19.3c0.1,0.2,0.2,0.4,0.5,0.8c0.1-0.9,0.2-1.7,0.2-2.4
			c0.5-5.9,0.9-11.8,1.4-17.7c0-0.3,0-0.6,0.5-0.6c1.8,0,3.5,0,5.3,0c0.1,0,0.2,0,0.3,0.1C668.6,456.8,667.8,467.3,667,477.9z"/>
		<path id="Path_8" class="st0" d="M601.2,477.9c-2,0-4,0-6,0c-0.2,0-0.4-0.3-0.5-0.5c-0.6-1.8-1.1-3.5-1.6-5.3
			c-0.1-0.4-0.3-0.6-0.8-0.6c-3.9,0-7.8,0-11.8,0c-0.4,0-0.7,0.2-0.8,0.5c-0.9,1.8-1.7,3.7-2.6,5.5c-0.1,0.2-0.3,0.4-0.5,0.4
			c-2,0-3.9,0-6,0c0.2-0.4,0.3-0.7,0.4-1c4.7-10,9.3-20,14-30c0.2-0.5,0.5-0.7,1-0.7c1.6,0,3.3,0,4.9,0c0.4,0,0.6,0.2,0.7,0.6
			c3.1,10.1,6.2,20.3,9.3,30.4C601.1,477.4,601.1,477.6,601.2,477.9z M591.2,465.5c-1.1-3.6-2.2-7.1-3.3-10.7
			c-1.7,3.7-3.4,7.2-5.1,10.7H591.2z"/>
		<path id="Path_10" class="st0" d="M640.7,446.3c-0.2,2-0.3,3.9-0.5,5.8h-11.3c-0.2,1.9-0.3,3.8-0.5,5.7h11.3
			c-0.2,2-0.3,3.8-0.5,5.8H628c-0.2,2.8-0.4,5.5-0.7,8.3h11.3c-0.2,2-0.3,3.9-0.5,5.9h-17.3c0.8-10.5,1.7-21,2.5-31.5L640.7,446.3
			L640.7,446.3z"/>
		<path id="Path_12" class="st0" d="M676.5,452.2h-5.6c0.2-2,0.3-3.9,0.5-5.9h17.5c-0.2,2-0.3,3.9-0.5,5.9h-5.8
			c-0.7,8.6-1.4,17.1-2.1,25.7H675C675.6,469.3,676,460.8,676.5,452.2z"/>
		<path id="Path_13" class="st0" d="M610.1,472.1h8.8c-0.2,1.9-0.3,3.8-0.5,5.7h-14.8c0.8-10.5,1.7-21,2.5-31.5h6.1
			C611.5,454.9,610.8,463.5,610.1,472.1z"/>
	</g>
</g>
<g>
	<path class="st2" d="M194.2,46c0,5.4-1.3,9.4-3.9,12.2c-2.6,2.8-6.5,4.2-11.5,4.2s-8.8-1.4-11.5-4.2s-4-6.9-4-12.2s1.3-9.4,4-12.1
		c2.7-2.8,6.5-4.2,11.6-4.2s8.9,1.4,11.5,4.2C192.9,36.6,194.2,40.6,194.2,46z M172.2,46c0,6.2,2.1,9.2,6.4,9.2
		c2.2,0,3.8-0.7,4.8-2.2c1.1-1.5,1.6-3.8,1.6-7s-0.5-5.5-1.6-7.1c-1.1-1.5-2.7-2.3-4.8-2.3C174.4,36.7,172.2,39.8,172.2,46z"/>
	<path class="st2" d="M227.2,62h-11.3l-11.6-22.4h-0.2c0.3,3.5,0.4,6.2,0.4,8.1V62h-7.6V30.1h11.2l11.6,22.1h0.1
		c-0.2-3.2-0.3-5.8-0.3-7.7V30.1h7.7L227.2,62L227.2,62z"/>
	<path class="st2" d="M250,62h-18.9V30.1H250V37h-10.3v5h9.5v7h-9.5v6H250V62z"/>
</g>
<g>
	<path class="st3" d="M50.1,77.1l2.3-3.7h2.1L50.7,79L50,82.5h-1.9l0.7-3.5l-1.5-5.7h2L50.1,77.1z"/>
	<path class="st3" d="M60.3,78.2c0,0.9-0.1,1.7-0.4,2.3c-0.3,0.7-0.7,1.2-1.3,1.6c-0.6,0.4-1.2,0.6-2,0.6c-0.8,0-1.5-0.2-2-0.7
		c-0.5-0.5-0.7-1.1-0.7-2c0-0.9,0.1-1.7,0.4-2.4c0.3-0.7,0.7-1.2,1.3-1.6c0.6-0.4,1.2-0.6,2-0.6c0.8,0,1.5,0.2,1.9,0.7
		C60.1,76.6,60.3,77.3,60.3,78.2z M58.4,78.2c0-0.8-0.3-1.2-0.9-1.2c-0.3,0-0.6,0.1-0.8,0.4c-0.2,0.3-0.5,0.6-0.6,1.1
		c-0.2,0.5-0.2,1-0.2,1.5c0,0.8,0.3,1.2,0.9,1.2c0.3,0,0.6-0.1,0.8-0.4c0.3-0.3,0.4-0.6,0.6-1.1C58.3,79.2,58.4,78.7,58.4,78.2z"/>
	<path class="st3" d="M62.5,75.5h1.9l-0.9,4.1c-0.1,0.3-0.1,0.5-0.1,0.7c0,0.5,0.2,0.8,0.7,0.8c0.4,0,0.7-0.2,1-0.7
		c0.3-0.5,0.6-1.1,0.7-2l0.6-2.9h1.9l-1.5,7h-1.4l0.1-1.3h0c-0.6,0.9-1.3,1.4-2.2,1.4c-0.6,0-1-0.2-1.3-0.5
		c-0.3-0.3-0.5-0.8-0.5-1.5c0-0.4,0.1-0.8,0.2-1.3L62.5,75.5z"/>
	<path class="st3" d="M73.8,75.4c0.2,0,0.4,0,0.6,0.1L74,77.3c-0.2-0.1-0.4-0.1-0.6-0.1c-0.5,0-0.9,0.2-1.3,0.6
		c-0.4,0.4-0.6,0.9-0.8,1.6l-0.7,3.1h-1.9l1.5-7h1.4l-0.1,1.3h0C72.2,75.9,72.9,75.4,73.8,75.4z"/>
	<path class="st3" d="M84.1,78.2c0,0.9-0.1,1.7-0.4,2.3c-0.3,0.7-0.7,1.2-1.3,1.6c-0.6,0.4-1.2,0.6-2,0.6c-0.8,0-1.5-0.2-2-0.7
		c-0.5-0.5-0.7-1.1-0.7-2c0-0.9,0.1-1.7,0.4-2.4c0.3-0.7,0.7-1.2,1.3-1.6c0.6-0.4,1.2-0.6,2-0.6c0.8,0,1.5,0.2,1.9,0.7
		C83.9,76.6,84.1,77.3,84.1,78.2z M82.2,78.2c0-0.8-0.3-1.2-0.9-1.2c-0.3,0-0.6,0.1-0.8,0.4c-0.2,0.3-0.5,0.6-0.6,1.1
		c-0.2,0.5-0.2,1-0.2,1.5c0,0.8,0.3,1.2,0.9,1.2c0.3,0,0.6-0.1,0.8-0.4c0.3-0.3,0.4-0.6,0.6-1.1C82.2,79.2,82.2,78.7,82.2,78.2z"/>
	<path class="st3" d="M90.8,82.5h-1.9l0.9-4.1c0.1-0.3,0.1-0.5,0.1-0.7c0-0.5-0.2-0.8-0.7-0.8c-0.4,0-0.7,0.2-1,0.7s-0.6,1.1-0.7,2
		l-0.6,2.9h-1.9l1.5-7h1.4l-0.1,1.3h0c0.6-1,1.4-1.4,2.2-1.4c0.6,0,1,0.2,1.3,0.5c0.3,0.3,0.5,0.8,0.5,1.5c0,0.3,0,0.7-0.1,1.1
		L90.8,82.5z"/>
	<path class="st3" d="M95.7,82.7c-0.9,0-1.6-0.2-2-0.7c-0.5-0.5-0.7-1.1-0.7-2c0-0.9,0.2-1.7,0.5-2.4c0.3-0.7,0.8-1.3,1.4-1.6
		c0.6-0.4,1.3-0.6,2-0.6c0.7,0,1.3,0.2,1.7,0.5c0.4,0.3,0.6,0.8,0.6,1.4c0,0.8-0.3,1.4-1,1.8c-0.7,0.4-1.7,0.6-3,0.6h-0.3l0,0.1V80
		c0,0.4,0.1,0.7,0.3,0.9c0.2,0.2,0.5,0.3,0.9,0.3c0.4,0,0.7,0,1-0.1c0.3-0.1,0.7-0.2,1.1-0.4v1.4C97.4,82.5,96.6,82.7,95.7,82.7z
		 M96.7,76.8c-0.4,0-0.7,0.2-1,0.5c-0.3,0.3-0.5,0.7-0.6,1.2h0.3c0.6,0,1.2-0.1,1.5-0.3c0.4-0.2,0.5-0.5,0.5-0.8
		C97.4,77,97.1,76.8,96.7,76.8z"/>
	<path class="st3" d="M107.9,80.2c0,0.8-0.3,1.4-0.8,1.8c-0.5,0.4-1.2,0.6-2.2,0.6c-0.4,0-0.8,0-1.2-0.1c-0.3-0.1-0.6-0.2-0.9-0.3
		v-1.6c0.7,0.4,1.3,0.6,2,0.6c0.3,0,0.6-0.1,0.8-0.2c0.2-0.1,0.3-0.3,0.3-0.6c0-0.2-0.1-0.3-0.2-0.5c-0.2-0.1-0.4-0.3-0.8-0.5
		c-0.5-0.3-0.9-0.6-1.1-0.8c-0.2-0.3-0.3-0.6-0.3-1c0-0.7,0.2-1.3,0.7-1.6c0.5-0.4,1.1-0.6,2-0.6c0.8,0,1.6,0.2,2.3,0.6l-0.6,1.3
		c-0.6-0.4-1.1-0.5-1.6-0.5c-0.2,0-0.4,0.1-0.6,0.2c-0.1,0.1-0.2,0.2-0.2,0.4c0,0.2,0.1,0.3,0.2,0.4c0.1,0.1,0.4,0.3,0.8,0.5
		c0.5,0.3,0.9,0.5,1.1,0.9C107.8,79.5,107.9,79.8,107.9,80.2z"/>
	<path class="st3" d="M112,81.1c0.3,0,0.6-0.1,1-0.2v1.4c-0.5,0.2-1,0.3-1.7,0.3c-0.6,0-1.1-0.1-1.4-0.4c-0.3-0.3-0.4-0.7-0.4-1.2
		c0-0.2,0-0.4,0.1-0.7l0.7-3.4h-1l0.2-0.9l1.2-0.5l0.8-1.5h1.2l-0.3,1.5h1.8L114,77h-1.8l-0.7,3.4c0,0.1,0,0.2,0,0.3
		C111.4,81,111.6,81.1,112,81.1z"/>
	<path class="st3" d="M120.9,78.2c0,0.9-0.1,1.7-0.4,2.3c-0.3,0.7-0.7,1.2-1.3,1.6c-0.6,0.4-1.2,0.6-2,0.6c-0.8,0-1.5-0.2-2-0.7
		s-0.7-1.1-0.7-2c0-0.9,0.1-1.7,0.4-2.4c0.3-0.7,0.7-1.2,1.3-1.6c0.6-0.4,1.2-0.6,2-0.6c0.8,0,1.5,0.2,1.9,0.7
		C120.7,76.6,120.9,77.3,120.9,78.2z M119,78.2c0-0.8-0.3-1.2-0.9-1.2c-0.3,0-0.6,0.1-0.8,0.4c-0.2,0.3-0.5,0.6-0.6,1.1
		c-0.2,0.5-0.2,1-0.2,1.5c0,0.8,0.3,1.2,0.9,1.2c0.3,0,0.6-0.1,0.8-0.4c0.3-0.3,0.4-0.6,0.6-1.1C119,79.2,119,78.7,119,78.2z"/>
	<path class="st3" d="M126.5,75.4c0.6,0,1.1,0.2,1.4,0.7c0.4,0.4,0.5,1.1,0.5,1.9c0,0.8-0.1,1.6-0.4,2.3c-0.3,0.7-0.7,1.3-1.2,1.8
		c-0.5,0.4-1,0.6-1.6,0.6c-0.3,0-0.6-0.1-0.9-0.2c-0.3-0.2-0.5-0.4-0.7-0.8h-0.1c-0.1,0.7-0.1,1.3-0.3,1.8l-0.5,2.1H121l2.1-10.1
		h1.4l-0.1,1.1h0.1C125.1,75.8,125.8,75.4,126.5,75.4z M125.8,76.9c-0.3,0-0.6,0.1-0.8,0.4c-0.3,0.3-0.5,0.7-0.6,1.1
		c-0.2,0.5-0.2,1-0.2,1.6c0,0.3,0.1,0.6,0.2,0.8c0.2,0.2,0.4,0.3,0.6,0.3c0.3,0,0.5-0.1,0.8-0.4c0.3-0.3,0.5-0.7,0.6-1.2
		c0.2-0.5,0.2-1,0.2-1.5C126.6,77.3,126.3,76.9,125.8,76.9z"/>
	<path class="st3" d="M134.5,82.5h-1.9l1.5-7h1.9L134.5,82.5z M134.4,73.9c0-0.4,0.1-0.6,0.3-0.8c0.2-0.2,0.5-0.3,0.8-0.3
		c0.3,0,0.5,0.1,0.7,0.2c0.2,0.1,0.2,0.3,0.2,0.6c0,0.3-0.1,0.6-0.3,0.8c-0.2,0.2-0.5,0.3-0.9,0.3C134.7,74.7,134.4,74.4,134.4,73.9
		z"/>
	<path class="st3" d="M142.2,82.5h-1.9l0.9-4.1c0.1-0.3,0.1-0.5,0.1-0.7c0-0.5-0.2-0.8-0.7-0.8c-0.4,0-0.7,0.2-1,0.7
		c-0.3,0.5-0.6,1.1-0.7,2l-0.6,2.9h-1.9l1.5-7h1.4l-0.1,1.3h0c0.6-1,1.4-1.4,2.2-1.4c0.6,0,1,0.2,1.3,0.5s0.5,0.8,0.5,1.5
		c0,0.3,0,0.7-0.1,1.1L142.2,82.5z"/>
	<path class="st3" d="M143.5,85.6c-0.4,0-0.8-0.1-1.1-0.2v-1.5c0.3,0.1,0.5,0.1,0.7,0.1c0.3,0,0.5-0.1,0.7-0.3
		c0.2-0.2,0.3-0.4,0.4-0.8l1.3-6h-1l0.2-0.9l1.1-0.5l0.1-0.5c0.2-0.8,0.5-1.4,0.9-1.7c0.4-0.4,1-0.5,1.7-0.5c0.5,0,1,0.1,1.5,0.3
		l-0.5,1.4c-0.3-0.1-0.6-0.2-0.8-0.2c-0.2,0-0.4,0.1-0.6,0.3c-0.1,0.2-0.2,0.4-0.3,0.7l-0.1,0.4h1.4l-0.3,1.4h-1.4l-1.3,6.3
		C145.7,84.8,144.9,85.6,143.5,85.6z"/>
	<path class="st3" d="M155.5,78.2c0,0.9-0.1,1.7-0.4,2.3c-0.3,0.7-0.7,1.2-1.3,1.6c-0.6,0.4-1.2,0.6-2,0.6c-0.8,0-1.5-0.2-2-0.7
		s-0.7-1.1-0.7-2c0-0.9,0.1-1.7,0.4-2.4c0.3-0.7,0.7-1.2,1.3-1.6c0.6-0.4,1.2-0.6,2-0.6c0.8,0,1.5,0.2,1.9,0.7
		C155.3,76.6,155.5,77.3,155.5,78.2z M153.6,78.2c0-0.8-0.3-1.2-0.9-1.2c-0.3,0-0.6,0.1-0.8,0.4c-0.2,0.3-0.5,0.6-0.6,1.1
		c-0.2,0.5-0.2,1-0.2,1.5c0,0.8,0.3,1.2,0.9,1.2c0.3,0,0.6-0.1,0.8-0.4c0.3-0.3,0.4-0.6,0.6-1.1C153.5,79.2,153.6,78.7,153.6,78.2z"
		/>
	<path class="st3" d="M161.3,75.4c0.2,0,0.4,0,0.6,0.1l-0.4,1.8c-0.2-0.1-0.4-0.1-0.6-0.1c-0.5,0-0.9,0.2-1.3,0.6
		c-0.4,0.4-0.6,0.9-0.8,1.6l-0.7,3.1h-1.9l1.5-7h1.4l-0.1,1.3h0C159.7,75.9,160.4,75.4,161.3,75.4z"/>
	<path class="st3" d="M166.7,75.4c0.9,0,1.5,0.5,1.6,1.4h0c0.3-0.5,0.6-0.8,1-1.1s0.8-0.4,1.2-0.4c0.6,0,1,0.2,1.3,0.5
		c0.3,0.4,0.4,0.8,0.4,1.5c0,0.3,0,0.7-0.1,1.1l-0.8,4h-1.9l0.9-4.1c0.1-0.3,0.1-0.5,0.1-0.7c0-0.5-0.2-0.8-0.6-0.8
		c-0.4,0-0.7,0.2-1,0.7c-0.3,0.5-0.6,1.1-0.7,2l-0.6,2.9h-1.9l0.9-4.1c0.1-0.3,0.1-0.5,0.1-0.7c0-0.5-0.2-0.8-0.6-0.8
		c-0.4,0-0.7,0.2-1,0.7s-0.6,1.1-0.7,2l-0.6,2.9h-1.9l1.5-7h1.4l-0.1,1.3h0C165.1,75.9,165.8,75.4,166.7,75.4z"/>
	<path class="st3" d="M175.5,82.7c-0.6,0-1.1-0.2-1.4-0.7c-0.4-0.4-0.5-1.1-0.5-1.9c0-0.8,0.2-1.6,0.5-2.4c0.3-0.7,0.7-1.3,1.2-1.7
		c0.5-0.4,1-0.6,1.6-0.6c0.4,0,0.8,0.1,1,0.3c0.3,0.2,0.5,0.4,0.7,0.8h0.1l0.4-0.9h1.5l-1.5,7h-1.4l0.1-0.9h0
		C176.9,82.3,176.3,82.7,175.5,82.7z M176.2,81.1c0.3,0,0.6-0.1,0.8-0.4c0.3-0.3,0.5-0.7,0.6-1.1c0.2-0.5,0.2-1,0.2-1.6
		c0-0.3-0.1-0.5-0.2-0.7c-0.2-0.2-0.4-0.3-0.6-0.3c-0.3,0-0.6,0.2-0.8,0.5c-0.3,0.3-0.5,0.7-0.6,1.2c-0.2,0.5-0.2,1-0.2,1.5
		c0,0.4,0.1,0.6,0.2,0.8C175.8,81,176,81.1,176.2,81.1z"/>
	<path class="st3" d="M183.7,81.1c0.3,0,0.6-0.1,1-0.2v1.4c-0.5,0.2-1,0.3-1.7,0.3c-0.6,0-1.1-0.1-1.4-0.4c-0.3-0.3-0.4-0.7-0.4-1.2
		c0-0.2,0-0.4,0.1-0.7l0.7-3.4h-1l0.2-0.9l1.2-0.5l0.8-1.5h1.2l-0.3,1.5h1.8l-0.3,1.4H184l-0.7,3.4c0,0.1,0,0.2,0,0.3
		C183.2,81,183.4,81.1,183.7,81.1z"/>
	<path class="st3" d="M187.9,82.5H186l1.5-7h1.9L187.9,82.5z M187.8,73.9c0-0.4,0.1-0.6,0.3-0.8c0.2-0.2,0.5-0.3,0.8-0.3
		c0.3,0,0.5,0.1,0.7,0.2c0.2,0.1,0.2,0.3,0.2,0.6c0,0.3-0.1,0.6-0.3,0.8c-0.2,0.2-0.5,0.3-0.9,0.3C188.1,74.7,187.8,74.4,187.8,73.9
		z"/>
	<path class="st3" d="M196.5,78.2c0,0.9-0.1,1.7-0.4,2.3c-0.3,0.7-0.7,1.2-1.3,1.6c-0.6,0.4-1.2,0.6-2,0.6c-0.8,0-1.5-0.2-2-0.7
		s-0.7-1.1-0.7-2c0-0.9,0.1-1.7,0.4-2.4c0.3-0.7,0.7-1.2,1.3-1.6c0.6-0.4,1.2-0.6,2-0.6c0.8,0,1.5,0.2,1.9,0.7
		C196.2,76.6,196.5,77.3,196.5,78.2z M194.6,78.2c0-0.8-0.3-1.2-0.9-1.2c-0.3,0-0.6,0.1-0.8,0.4c-0.2,0.3-0.5,0.6-0.6,1.1
		c-0.2,0.5-0.2,1-0.2,1.5c0,0.8,0.3,1.2,0.9,1.2c0.3,0,0.6-0.1,0.8-0.4c0.3-0.3,0.4-0.6,0.6-1.1C194.5,79.2,194.6,78.7,194.6,78.2z"
		/>
	<path class="st3" d="M203.1,82.5h-1.9l0.9-4.1c0.1-0.3,0.1-0.5,0.1-0.7c0-0.5-0.2-0.8-0.7-0.8c-0.4,0-0.7,0.2-1,0.7s-0.6,1.1-0.7,2
		l-0.6,2.9h-1.9l1.5-7h1.4l-0.1,1.3h0c0.6-1,1.4-1.4,2.2-1.4c0.6,0,1,0.2,1.3,0.5c0.3,0.3,0.5,0.8,0.5,1.5c0,0.3,0,0.7-0.1,1.1
		L203.1,82.5z"/>
	<path class="st3" d="M213.2,80.2c0,0.8-0.3,1.4-0.8,1.8c-0.5,0.4-1.2,0.6-2.2,0.6c-0.4,0-0.8,0-1.2-0.1c-0.3-0.1-0.6-0.2-0.9-0.3
		v-1.6c0.7,0.4,1.3,0.6,2,0.6c0.3,0,0.6-0.1,0.8-0.2c0.2-0.1,0.3-0.3,0.3-0.6c0-0.2-0.1-0.3-0.2-0.5c-0.2-0.1-0.4-0.3-0.8-0.5
		c-0.5-0.3-0.9-0.6-1.1-0.8c-0.2-0.3-0.3-0.6-0.3-1c0-0.7,0.2-1.3,0.7-1.6s1.1-0.6,2-0.6c0.8,0,1.6,0.2,2.3,0.6l-0.6,1.3
		c-0.6-0.4-1.1-0.5-1.6-0.5c-0.2,0-0.4,0.1-0.6,0.2c-0.1,0.1-0.2,0.2-0.2,0.4c0,0.2,0.1,0.3,0.2,0.4c0.1,0.1,0.4,0.3,0.8,0.5
		c0.5,0.3,0.9,0.5,1.1,0.9C213,79.5,213.2,79.8,213.2,80.2z"/>
	<path class="st3" d="M214.6,75.5h1.8l0.4,3.2c0.1,0.5,0.1,1.1,0.1,1.8h0c0.1-0.2,0.2-0.5,0.3-0.7s0.2-0.6,0.4-1l1.6-3.4h2l-4.3,8
		c-0.7,1.4-1.7,2.1-3,2.1c-0.4,0-0.7,0-0.9-0.1V84c0.3,0.1,0.5,0.1,0.7,0.1c0.4,0,0.7-0.1,0.9-0.3c0.3-0.2,0.5-0.5,0.7-0.9l0.2-0.3
		L214.6,75.5z"/>
	<path class="st3" d="M225.8,80.2c0,0.8-0.3,1.4-0.8,1.8c-0.5,0.4-1.2,0.6-2.2,0.6c-0.4,0-0.8,0-1.2-0.1c-0.3-0.1-0.6-0.2-0.9-0.3
		v-1.6c0.7,0.4,1.3,0.6,2,0.6c0.3,0,0.6-0.1,0.8-0.2c0.2-0.1,0.3-0.3,0.3-0.6c0-0.2-0.1-0.3-0.2-0.5c-0.2-0.1-0.4-0.3-0.8-0.5
		c-0.5-0.3-0.9-0.6-1.1-0.8c-0.2-0.3-0.3-0.6-0.3-1c0-0.7,0.2-1.3,0.7-1.6c0.5-0.4,1.1-0.6,2-0.6c0.8,0,1.6,0.2,2.3,0.6l-0.6,1.3
		c-0.6-0.4-1.1-0.5-1.6-0.5c-0.2,0-0.4,0.1-0.6,0.2c-0.1,0.1-0.2,0.2-0.2,0.4c0,0.2,0.1,0.3,0.2,0.4c0.1,0.1,0.4,0.3,0.8,0.5
		c0.5,0.3,0.9,0.5,1.1,0.9C225.7,79.5,225.8,79.8,225.8,80.2z"/>
	<path class="st3" d="M229.9,81.1c0.3,0,0.6-0.1,1-0.2v1.4c-0.5,0.2-1,0.3-1.7,0.3c-0.6,0-1.1-0.1-1.4-0.4c-0.3-0.3-0.4-0.7-0.4-1.2
		c0-0.2,0-0.4,0.1-0.7l0.7-3.4h-1l0.2-0.9l1.2-0.5l0.8-1.5h1.2l-0.3,1.5h1.8l-0.3,1.4h-1.8l-0.7,3.4c0,0.1,0,0.2,0,0.3
		C229.3,81,229.5,81.1,229.9,81.1z"/>
	<path class="st3" d="M235.2,82.7c-0.9,0-1.6-0.2-2-0.7c-0.5-0.5-0.7-1.1-0.7-2c0-0.9,0.2-1.7,0.5-2.4c0.3-0.7,0.8-1.3,1.4-1.6
		c0.6-0.4,1.3-0.6,2-0.6c0.7,0,1.3,0.2,1.7,0.5c0.4,0.3,0.6,0.8,0.6,1.4c0,0.8-0.3,1.4-1,1.8c-0.7,0.4-1.7,0.6-3,0.6h-0.3l0,0.1V80
		c0,0.4,0.1,0.7,0.3,0.9c0.2,0.2,0.5,0.3,0.9,0.3c0.4,0,0.7,0,1-0.1c0.3-0.1,0.7-0.2,1.1-0.4v1.4C236.9,82.5,236.1,82.7,235.2,82.7z
		 M236.2,76.8c-0.4,0-0.7,0.2-1,0.5c-0.3,0.3-0.5,0.7-0.6,1.2h0.3c0.6,0,1.2-0.1,1.5-0.3c0.4-0.2,0.5-0.5,0.5-0.8
		C236.9,77,236.7,76.8,236.2,76.8z"/>
	<path class="st3" d="M244.3,75.4c0.9,0,1.5,0.5,1.6,1.4h0c0.3-0.5,0.6-0.8,1-1.1s0.8-0.4,1.2-0.4c0.6,0,1,0.2,1.3,0.5
		c0.3,0.4,0.4,0.8,0.4,1.5c0,0.3,0,0.7-0.1,1.1l-0.8,4h-1.9l0.9-4.1c0.1-0.3,0.1-0.5,0.1-0.7c0-0.5-0.2-0.8-0.6-0.8
		c-0.4,0-0.7,0.2-1,0.7c-0.3,0.5-0.6,1.1-0.7,2l-0.6,2.9h-1.9l0.9-4.1c0.1-0.3,0.1-0.5,0.1-0.7c0-0.5-0.2-0.8-0.6-0.8
		c-0.4,0-0.7,0.2-1,0.7s-0.6,1.1-0.7,2l-0.6,2.9h-1.9l1.5-7h1.4l-0.1,1.3h0C242.6,75.9,243.4,75.4,244.3,75.4z"/>
</g>
</svg>
